<?xml version="1.0" encoding="UTF-8"?>
<!DOCTYPE svg PUBLIC "-//W3C//DTD SVG 1.1//EN" "http://www.w3.org/Graphics/SVG/1.1/DTD/svg11.dtd">
<svg xmlns="http://www.w3.org/2000/svg" version="1.1" width="500px" height="500px" style="shape-rendering:geometricPrecision; text-rendering:geometricPrecision; image-rendering:optimizeQuality; fill-rule:evenodd; clip-rule:evenodd" xmlns:xlink="http://www.w3.org/1999/xlink">
<g><path style="opacity:0.789" fill="#424242" d="M 231.5,98.5 C 209.177,97.1669 186.51,96.5003 163.5,96.5C 140.49,96.5003 117.823,97.1669 95.5,98.5C 94.7326,97.828 94.0659,96.9947 93.5,96C 139.832,95.5 186.165,95.3333 232.5,95.5C 232.737,96.791 232.404,97.791 231.5,98.5 Z"/></g>
<g><path style="opacity:1" fill="#070707" d="M 231.5,98.5 C 229.118,112.421 226.118,126.088 222.5,139.5C 209.5,139.5 196.5,139.5 183.5,139.5C 183.5,138.5 183.5,137.5 183.5,136.5C 183.54,133.012 184.207,129.679 185.5,126.5C 184.036,125.84 182.369,125.507 180.5,125.5C 178.36,125.556 176.694,126.223 175.5,127.5C 167.135,169.328 158.135,210.994 148.5,252.5C 135.5,252.5 122.5,252.5 109.5,252.5C 109.5,251.167 109.5,249.833 109.5,248.5C 116.66,213.034 124.326,177.7 132.5,142.5C 134.04,140.162 134.706,137.495 134.5,134.5C 134.325,132.379 134.659,130.379 135.5,128.5C 136.404,127.791 136.737,126.791 136.5,125.5C 130.167,125.5 123.833,125.5 117.5,125.5C 109.459,117.09 102.126,108.09 95.5,98.5C 117.823,97.1669 140.49,96.5003 163.5,96.5C 186.51,96.5003 209.177,97.1669 231.5,98.5 Z"/></g>
<g><path style="opacity:0.512" fill="#7f7f7f" d="M 117.5,125.5 C 123.833,125.5 130.167,125.5 136.5,125.5C 136.737,126.791 136.404,127.791 135.5,128.5C 129.735,126.853 123.735,125.853 117.5,125.5 Z"/></g>
<g><path style="opacity:0.512" fill="#838383" d="M 185.5,126.5 C 182.061,126.253 178.728,126.586 175.5,127.5C 176.694,126.223 178.36,125.556 180.5,125.5C 182.369,125.507 184.036,125.84 185.5,126.5 Z"/></g>
<g><path style="opacity:0.532" fill="#838383" d="M 183.5,136.5 C 183.5,137.5 183.5,138.5 183.5,139.5C 196.5,139.5 209.5,139.5 222.5,139.5C 209.344,140.496 196.01,140.829 182.5,140.5C 182.232,138.901 182.566,137.568 183.5,136.5 Z"/></g>
<g><path style="opacity:0.686" fill="#737373" d="M 134.5,134.5 C 134.706,137.495 134.04,140.162 132.5,142.5C 132.565,139.572 133.232,136.905 134.5,134.5 Z"/></g>
<g><path style="opacity:1" fill="#3992bb" d="M 314.5,165.5 C 314.588,161.694 313.921,158.027 312.5,154.5C 311.167,156.5 309.5,158.167 307.5,159.5C 305.954,158.316 304.287,157.316 302.5,156.5C 305.878,155.41 309.211,154.41 312.5,153.5C 312.649,152.448 312.483,151.448 312,150.5C 310.414,149.624 308.914,148.624 307.5,147.5C 268.506,146.5 229.506,146.167 190.5,146.5C 190.921,148.91 192.254,150.743 194.5,152C 194.167,152.333 193.833,152.667 193.5,153C 194.665,154.084 195.998,154.917 197.5,155.5C 198.429,156.689 198.762,158.022 198.5,159.5C 199.978,159.238 201.311,159.571 202.5,160.5C 203.123,162.711 204.123,164.711 205.5,166.5C 205.113,169.238 204.113,171.572 202.5,173.5C 202.698,171.425 202.865,169.425 203,167.5C 197.863,160.063 192.363,152.896 186.5,146C 227.833,145.333 269.167,145.333 310.5,146C 313.799,148.273 316.133,151.273 317.5,155C 316.552,158.61 315.552,162.11 314.5,165.5 Z"/></g>
<g><path style="opacity:1" fill="#1c91c7" d="M 314.5,165.5 C 314.5,165.833 314.5,166.167 314.5,166.5C 313.542,166.953 312.708,167.619 312,168.5C 311.851,165.721 311.017,165.221 309.5,167C 312.241,171.29 312.074,175.457 309,179.5C 307.117,188.414 305.95,197.414 305.5,206.5C 305.24,210.302 304.406,213.969 303,217.5C 298.343,220.245 293.51,222.579 288.5,224.5C 284.838,224.003 281.838,225.169 279.5,228C 282.029,229.062 284.696,229.895 287.5,230.5C 290.113,233.371 290.113,236.205 287.5,239C 288,239.5 288.5,240 289,240.5C 289.246,245.372 289.746,250.205 290.5,255C 289.691,256.784 289.024,258.617 288.5,260.5C 291.456,262.944 292.123,265.944 290.5,269.5C 289.624,270.251 288.624,270.751 287.5,271C 288.626,274.744 288.793,278.577 288,282.5C 286.784,284.962 286.118,287.629 286,290.5C 285.51,289.207 285.343,287.873 285.5,286.5C 282.459,286.406 280.793,287.906 280.5,291C 277.755,291.053 275.755,292.22 274.5,294.5C 277.546,295.85 279.88,295.017 281.5,292C 282.635,291.251 283.635,291.417 284.5,292.5C 283.527,294.64 282.027,296.307 280,297.5C 279.517,298.448 279.351,299.448 279.5,300.5C 279.167,300.5 278.833,300.5 278.5,300.5C 244.52,301.465 210.52,301.799 176.5,301.5C 176.8,296.583 177.966,291.916 180,287.5C 181.163,279.861 181.996,272.195 182.5,264.5C 188.676,233.941 195.343,203.608 202.5,173.5C 204.113,171.572 205.113,169.238 205.5,166.5C 204.123,164.711 203.123,162.711 202.5,160.5C 201.311,159.571 199.978,159.238 198.5,159.5C 198.762,158.022 198.429,156.689 197.5,155.5C 195.998,154.917 194.665,154.084 193.5,153C 193.833,152.667 194.167,152.333 194.5,152C 192.254,150.743 190.921,148.91 190.5,146.5C 229.506,146.167 268.506,146.5 307.5,147.5C 308.914,148.624 310.414,149.624 312,150.5C 312.483,151.448 312.649,152.448 312.5,153.5C 309.211,154.41 305.878,155.41 302.5,156.5C 304.287,157.316 305.954,158.316 307.5,159.5C 309.5,158.167 311.167,156.5 312.5,154.5C 313.921,158.027 314.588,161.694 314.5,165.5 Z M 241.5,176.5 C 251.681,176.173 261.681,176.506 271.5,177.5C 270.422,183.222 269.089,188.888 267.5,194.5C 257.889,200.932 247.889,206.765 237.5,212C 235.673,212.899 234.34,214.233 233.5,216C 236.35,226.714 239.683,237.214 243.5,247.5C 248.079,245.294 252.579,242.961 257,240.5C 255.704,249.486 254.204,258.486 252.5,267.5C 251.566,268.568 251.232,269.901 251.5,271.5C 241.319,271.827 231.319,271.494 221.5,270.5C 223.818,260.562 225.818,250.562 227.5,240.5C 228.74,237.353 229.74,234.02 230.5,230.5C 227.859,223.96 226.525,217.293 226.5,210.5C 229.5,208.5 232.5,206.5 235.5,204.5C 236.246,203.264 236.579,201.93 236.5,200.5C 238.673,192.635 240.34,184.635 241.5,176.5 Z"/></g>
<g><path style="opacity:0.243" fill="#bfe7fd" d="M 241.5,176.5 C 251.674,175.177 262.007,175.177 272.5,176.5C 272.376,177.107 272.043,177.44 271.5,177.5C 261.681,176.506 251.681,176.173 241.5,176.5 Z"/></g>
<g><path style="opacity:1" fill="#54a1c5" d="M 314.5,166.5 C 311.99,180.062 308.99,193.395 305.5,206.5C 305.95,197.414 307.117,188.414 309,179.5C 312.074,175.457 312.241,171.29 309.5,167C 311.017,165.221 311.851,165.721 312,168.5C 312.708,167.619 313.542,166.953 314.5,166.5 Z"/></g>
<g><path style="opacity:1" fill="#59a3c6" d="M 236.5,200.5 C 236.579,201.93 236.246,203.264 235.5,204.5C 232.5,206.5 229.5,208.5 226.5,210.5C 226.525,217.293 227.859,223.96 230.5,230.5C 229.74,234.02 228.74,237.353 227.5,240.5C 227.319,230.892 225.986,221.226 223.5,211.5C 224.136,208.206 226.136,206.873 229.5,207.5C 229.5,206.5 229.5,205.5 229.5,204.5C 230.833,204.5 232.167,204.5 233.5,204.5C 233.468,202.381 234.468,201.048 236.5,200.5 Z"/></g>
<g><path style="opacity:1" fill="#858585" d="M 355.5,234.5 C 354.326,235.514 353.66,236.847 353.5,238.5C 352.662,238.842 352.328,239.508 352.5,240.5C 351.833,240.5 351.5,240.833 351.5,241.5C 350.833,241.5 350.5,241.833 350.5,242.5C 349.833,242.5 349.5,242.833 349.5,243.5C 348.833,243.5 348.5,243.833 348.5,244.5C 347.833,244.5 347.5,244.833 347.5,245.5C 346.833,245.5 346.5,245.833 346.5,246.5C 345.833,246.5 345.5,246.833 345.5,247.5C 343.973,247.427 342.973,248.094 342.5,249.5C 341.391,249.557 340.391,249.89 339.5,250.5C 338.544,249.341 337.544,248.174 336.5,247C 336.905,246.055 337.572,245.388 338.5,245C 336.273,244.296 335.94,243.129 337.5,241.5C 344.054,237.114 349.387,231.614 353.5,225C 352.549,224.282 352.383,223.449 353,222.5C 355.13,226.172 355.963,230.172 355.5,234.5 Z"/></g>
<g><path style="opacity:1" fill="#9f9f9f" d="M 337.5,241.5 C 335.94,243.129 336.273,244.296 338.5,245C 337.572,245.388 336.905,246.055 336.5,247C 337.544,248.174 338.544,249.341 339.5,250.5C 339.5,250.833 339.5,251.167 339.5,251.5C 337.973,251.427 336.973,252.094 336.5,253.5C 335.167,253.833 333.833,254.167 332.5,254.5C 330.5,254.5 328.5,254.5 326.5,254.5C 326.5,255.5 326.5,256.5 326.5,257.5C 320.493,257.382 319.16,254.715 322.5,249.5C 327.333,246.582 332.333,243.916 337.5,241.5 Z"/></g>
<g><path style="opacity:0.247" fill="#bdbdbd" d="M 109.5,248.5 C 109.5,249.833 109.5,251.167 109.5,252.5C 122.5,252.5 135.5,252.5 148.5,252.5C 135.344,253.496 122.01,253.829 108.5,253.5C 108.216,251.585 108.549,249.919 109.5,248.5 Z"/></g>
<g><path style="opacity:1" fill="#3396c6" d="M 288.5,224.5 C 287.571,225.315 286.571,226.148 285.5,227C 290.384,230.268 295.051,233.768 299.5,237.5C 295.178,255.787 291.012,274.121 287,292.5C 285.338,295.994 282.838,298.661 279.5,300.5C 279.351,299.448 279.517,298.448 280,297.5C 282.027,296.307 283.527,294.64 284.5,292.5C 283.635,291.417 282.635,291.251 281.5,292C 279.88,295.017 277.546,295.85 274.5,294.5C 275.755,292.22 277.755,291.053 280.5,291C 280.793,287.906 282.459,286.406 285.5,286.5C 285.343,287.873 285.51,289.207 286,290.5C 286.118,287.629 286.784,284.962 288,282.5C 288.793,278.577 288.626,274.744 287.5,271C 288.624,270.751 289.624,270.251 290.5,269.5C 292.123,265.944 291.456,262.944 288.5,260.5C 289.024,258.617 289.691,256.784 290.5,255C 289.746,250.205 289.246,245.372 289,240.5C 288.5,240 288,239.5 287.5,239C 290.113,236.205 290.113,233.371 287.5,230.5C 284.696,229.895 282.029,229.062 279.5,228C 281.838,225.169 284.838,224.003 288.5,224.5 Z"/></g>
<g><path style="opacity:0.995" fill="#8c8c8c" d="M 338.5,263.5 C 337.399,259.702 337.399,256.369 338.5,253.5C 338.833,252.833 339.167,252.167 339.5,251.5C 341.027,251.573 342.027,250.906 342.5,249.5C 344.027,249.573 345.027,248.906 345.5,247.5C 346.167,247.5 346.5,247.167 346.5,246.5C 347.167,246.5 347.5,246.167 347.5,245.5C 348.167,245.5 348.5,245.167 348.5,244.5C 349.167,244.5 349.5,244.167 349.5,243.5C 350.167,243.5 350.5,243.167 350.5,242.5C 351.167,242.5 351.5,242.167 351.5,241.5C 352.167,241.5 352.5,241.167 352.5,240.5C 353.338,240.158 353.672,239.492 353.5,238.5C 355.104,237.713 355.771,236.38 355.5,234.5C 356.268,233.737 356.768,232.737 357,231.5C 361.221,241.847 358.721,250.347 349.5,257C 346.108,259.694 342.441,261.86 338.5,263.5 Z"/></g>
<g><path style="opacity:0.972" fill="#b6b6b6" d="M 322.5,249.5 C 319.16,254.715 320.493,257.382 326.5,257.5C 326.5,256.5 326.5,255.5 326.5,254.5C 328.5,254.5 330.5,254.5 332.5,254.5C 330.651,255.593 328.984,256.926 327.5,258.5C 323.495,260.168 319.495,261.835 315.5,263.5C 313.396,263.799 311.396,263.466 309.5,262.5C 308.209,260.144 308.209,257.811 309.5,255.5C 313.709,253.229 318.042,251.229 322.5,249.5 Z"/></g>
<g><path style="opacity:1" fill="#3895c2" d="M 227.5,240.5 C 225.818,250.562 223.818,260.562 221.5,270.5C 220.957,270.56 220.624,270.893 220.5,271.5C 230.993,272.823 241.326,272.823 251.5,271.5C 251.232,269.901 251.566,268.568 252.5,267.5C 252.5,268.833 252.5,270.167 252.5,271.5C 253.675,271.281 254.675,271.614 255.5,272.5C 253.577,273.308 251.577,273.808 249.5,274C 239.239,274.276 229.239,274.776 219.5,275.5C 219.317,270.577 217.984,265.744 215.5,261C 216.423,258.959 216.756,256.792 216.5,254.5C 217.5,254.5 218.5,254.5 219.5,254.5C 219.336,257.187 219.503,259.854 220,262.5C 222.048,259.187 223.048,255.521 223,251.5C 224.356,247.705 225.856,244.038 227.5,240.5 Z"/></g>
<g><path style="opacity:0.996" fill="#a9a9a9" d="M 336.5,253.5 C 337.167,253.5 337.833,253.5 338.5,253.5C 337.399,256.369 337.399,259.702 338.5,263.5C 333.984,266.927 328.984,269.593 323.5,271.5C 321.856,271.286 320.356,271.62 319,272.5C 316.866,270.422 317.032,268.588 319.5,267C 318.829,266.014 318.829,264.847 319.5,263.5C 322.47,262.347 325.137,260.68 327.5,258.5C 330.992,257.59 333.992,255.924 336.5,253.5 Z"/></g>
<g><path style="opacity:0.99" fill="#cecfcf" d="M 309.5,255.5 C 308.209,257.811 308.209,260.144 309.5,262.5C 311.396,263.466 313.396,263.799 315.5,263.5C 316.632,264.354 317.965,264.354 319.5,263.5C 318.829,264.847 318.829,266.014 319.5,267C 317.032,268.588 316.866,270.422 319,272.5C 320.356,271.62 321.856,271.286 323.5,271.5C 321.284,273.194 318.784,274.527 316,275.5C 313.721,274.609 311.554,273.609 309.5,272.5C 308.71,271.206 307.71,270.039 306.5,269C 306.833,268.667 307.167,268.333 307.5,268C 306.552,267.517 305.552,267.351 304.5,267.5C 304.672,266.508 304.338,265.842 303.5,265.5C 303.672,264.508 303.338,263.842 302.5,263.5C 301.833,262.833 301.167,262.167 300.5,261.5C 302.592,258.277 305.592,256.277 309.5,255.5 Z"/></g>
<g><path style="opacity:0.227" fill="#b3eeff" d="M 221.5,270.5 C 231.319,271.494 241.319,271.827 251.5,271.5C 241.326,272.823 230.993,272.823 220.5,271.5C 220.624,270.893 220.957,270.56 221.5,270.5 Z"/></g>
<g><path style="opacity:1" fill="#318bbf" d="M 300.5,261.5 C 301.167,262.167 301.833,262.833 302.5,263.5C 302.328,264.492 302.662,265.158 303.5,265.5C 303.328,266.492 303.662,267.158 304.5,267.5C 305.189,270.189 306.856,271.856 309.5,272.5C 310.716,274.451 312.382,275.951 314.5,277C 318.722,278.941 322.722,281.108 326.5,283.5C 329.49,285.65 332.49,287.983 335.5,290.5C 335.167,290.833 334.833,291.167 334.5,291.5C 333.468,289.96 332.135,289.46 330.5,290C 329.881,291.757 328.714,292.924 327,293.5C 325.234,292.767 323.401,292.433 321.5,292.5C 320.833,292.5 320.167,292.5 319.5,292.5C 319.158,291.662 318.492,291.328 317.5,291.5C 317.027,290.094 316.027,289.427 314.5,289.5C 314.158,288.662 313.492,288.328 312.5,288.5C 312.5,287.833 312.167,287.5 311.5,287.5C 311.027,286.094 310.027,285.427 308.5,285.5C 308.5,284.833 308.167,284.5 307.5,284.5C 306.167,282.5 304.5,280.833 302.5,279.5C 302.733,281.062 303.4,282.395 304.5,283.5C 307.511,288.477 311.511,292.644 316.5,296C 315.845,297.487 314.845,298.653 313.5,299.5C 312.289,298.726 312.289,297.893 313.5,297C 309.572,295.198 305.572,293.698 301.5,292.5C 294.592,286.963 292.758,279.963 296,271.5C 296.667,270.167 297.333,270.167 298,271.5C 298.149,267.867 298.982,264.534 300.5,261.5 Z M 302.5,279.5 C 304.5,280.833 306.167,282.5 307.5,284.5C 306.391,284.443 305.391,284.11 304.5,283.5C 303.4,282.395 302.733,281.062 302.5,279.5 Z M 308.5,285.5 C 310.027,285.427 311.027,286.094 311.5,287.5C 309.973,287.573 308.973,286.906 308.5,285.5 Z M 314.5,289.5 C 316.027,289.427 317.027,290.094 317.5,291.5C 315.973,291.573 314.973,290.906 314.5,289.5 Z"/></g>
<g><path style="opacity:1" fill="#3fb6e0" d="M 326.5,283.5 C 336.251,286.874 345.251,291.541 353.5,297.5C 354.52,300.367 356.186,302.867 358.5,305C 357.416,308.114 355.916,308.281 354,305.5C 352.7,306.707 351.2,307.374 349.5,307.5C 348.609,306.89 347.609,306.557 346.5,306.5C 346.027,305.094 345.027,304.427 343.5,304.5C 343.158,303.662 342.492,303.328 341.5,303.5C 341.158,302.662 340.492,302.328 339.5,302.5C 339.158,301.662 338.492,301.328 337.5,301.5C 334.753,298.793 331.42,297.127 327.5,296.5C 327.158,295.662 326.492,295.328 325.5,295.5C 325.158,294.662 324.492,294.328 323.5,294.5C 323.158,293.662 322.492,293.328 321.5,293.5C 321.5,293.167 321.5,292.833 321.5,292.5C 323.401,292.433 325.234,292.767 327,293.5C 328.714,292.924 329.881,291.757 330.5,290C 332.135,289.46 333.468,289.96 334.5,291.5C 334.833,291.167 335.167,290.833 335.5,290.5C 332.49,287.983 329.49,285.65 326.5,283.5 Z"/></g>
<g><path style="opacity:1" fill="#3e8fb5" d="M 182.5,264.5 C 181.996,272.195 181.163,279.861 180,287.5C 177.966,291.916 176.8,296.583 176.5,301.5C 210.52,301.799 244.52,301.465 278.5,300.5C 277.22,301.931 275.553,302.598 273.5,302.5C 240.329,302.832 207.329,302.498 174.5,301.5C 176.676,288.942 179.343,276.608 182.5,264.5 Z"/></g>
<g><path style="opacity:0.235" fill="#b6eefe" d="M 174.5,301.5 C 207.329,302.498 240.329,302.832 273.5,302.5C 240.331,303.83 206.998,303.83 173.5,302.5C 173.624,301.893 173.957,301.56 174.5,301.5 Z"/></g>
<g><path style="opacity:1" fill="#319ecf" d="M 304.5,283.5 C 305.391,284.11 306.391,284.443 307.5,284.5C 308.167,284.5 308.5,284.833 308.5,285.5C 308.973,286.906 309.973,287.573 311.5,287.5C 312.167,287.5 312.5,287.833 312.5,288.5C 312.842,289.338 313.508,289.672 314.5,289.5C 314.973,290.906 315.973,291.573 317.5,291.5C 317.842,292.338 318.508,292.672 319.5,292.5C 319.842,293.338 320.508,293.672 321.5,293.5C 321.842,294.338 322.508,294.672 323.5,294.5C 323.842,295.338 324.508,295.672 325.5,295.5C 325.842,296.338 326.508,296.672 327.5,296.5C 328.167,297.167 328.833,297.833 329.5,298.5C 329.753,300.827 329.086,302.827 327.5,304.5C 329.045,305.452 330.712,305.785 332.5,305.5C 332.5,306.5 332.5,307.5 332.5,308.5C 328.218,305.917 323.551,304.25 318.5,303.5C 312.314,300.578 306.648,296.911 301.5,292.5C 305.572,293.698 309.572,295.198 313.5,297C 312.289,297.893 312.289,298.726 313.5,299.5C 314.845,298.653 315.845,297.487 316.5,296C 311.511,292.644 307.511,288.477 304.5,283.5 Z"/></g>
<g><path style="opacity:1" fill="#40b1db" d="M 329.5,298.5 C 332.167,299.5 334.833,300.5 337.5,301.5C 337.842,302.338 338.508,302.672 339.5,302.5C 339.842,303.338 340.508,303.672 341.5,303.5C 341.842,304.338 342.508,304.672 343.5,304.5C 343.5,304.833 343.5,305.167 343.5,305.5C 342.4,306.558 341.066,307.392 339.5,308C 341.699,309.583 344.032,309.75 346.5,308.5C 346.5,309.5 346.5,310.5 346.5,311.5C 343.682,312.97 340.682,313.97 337.5,314.5C 330.995,311.083 324.662,307.416 318.5,303.5C 323.551,304.25 328.218,305.917 332.5,308.5C 332.5,307.5 332.5,306.5 332.5,305.5C 330.712,305.785 329.045,305.452 327.5,304.5C 329.086,302.827 329.753,300.827 329.5,298.5 Z"/></g>
<g><path style="opacity:1" fill="#4ccef1" d="M 353.5,297.5 C 361.618,301.732 366.285,308.399 367.5,317.5C 367.453,320.568 366.953,323.568 366,326.5C 364.899,323.6 363.399,320.933 361.5,318.5C 361.709,317.914 362.043,317.414 362.5,317C 361.207,316.51 359.873,316.343 358.5,316.5C 358.167,315.5 357.5,314.833 356.5,314.5C 356.5,313.833 356.167,313.5 355.5,313.5C 355.5,312.833 355.167,312.5 354.5,312.5C 353.738,310.738 352.404,309.738 350.5,309.5C 350.5,308.833 350.167,308.5 349.5,308.5C 349.5,308.167 349.5,307.833 349.5,307.5C 351.2,307.374 352.7,306.707 354,305.5C 355.916,308.281 357.416,308.114 358.5,305C 356.186,302.867 354.52,300.367 353.5,297.5 Z"/></g>
<g><path style="opacity:1" fill="#0e0e0e" d="M 129.5,318.5 C 130.833,318.5 132.167,318.5 133.5,318.5C 133.5,320.167 133.5,321.833 133.5,323.5C 133.167,323.5 132.833,323.5 132.5,323.5C 131.167,323.5 129.833,323.5 128.5,323.5C 129.001,328.153 128.334,332.486 126.5,336.5C 125.5,336.5 124.5,336.5 123.5,336.5C 124.089,332.029 123.423,328.029 121.5,324.5C 119.744,323.448 119.077,321.781 119.5,319.5C 122.625,318.521 125.958,318.187 129.5,318.5 Z"/></g>
<g><path style="opacity:1" fill="#101010" d="M 173.5,318.5 C 174.833,318.5 176.167,318.5 177.5,318.5C 177.5,324.167 177.5,329.833 177.5,335.5C 175.833,335.5 174.167,335.5 172.5,335.5C 172.762,334.022 172.429,332.689 171.5,331.5C 170.548,333.045 170.215,334.712 170.5,336.5C 168.309,337.291 166.309,337.291 164.5,336.5C 164.5,330.833 164.5,325.167 164.5,319.5C 166.167,319.5 167.833,319.5 169.5,319.5C 169.5,321.833 169.5,324.167 169.5,326.5C 170.791,326.737 171.791,326.404 172.5,325.5C 172.198,322.941 172.532,320.607 173.5,318.5 Z"/></g>
<g><path style="opacity:1" fill="#252525" d="M 196.5,331.5 C 196.5,329.5 196.5,327.5 196.5,325.5C 199.245,317.551 204.411,315.551 212,319.5C 216.064,331.423 211.898,336.923 199.5,336C 197.859,334.871 196.859,333.371 196.5,331.5 Z M 203.5,324.5 C 208.511,325.623 208.678,327.623 204,330.5C 201.118,328.826 200.952,326.826 203.5,324.5 Z"/></g>
<g><path style="opacity:0.565" fill="#9d9d9d" d="M 129.5,318.5 C 131.683,317.157 133.683,317.49 135.5,319.5C 135.5,325.167 135.5,330.833 135.5,336.5C 137.833,336.5 140.167,336.5 142.5,336.5C 140.052,337.473 137.385,337.806 134.5,337.5C 134.819,332.637 134.486,327.97 133.5,323.5C 133.5,321.833 133.5,320.167 133.5,318.5C 132.167,318.5 130.833,318.5 129.5,318.5 Z"/></g>
<g><path style="opacity:1" fill="#121212" d="M 147.5,323.5 C 144.941,323.198 142.607,323.532 140.5,324.5C 141.209,325.404 142.209,325.737 143.5,325.5C 144.5,325.5 145.5,325.5 146.5,325.5C 146.5,326.833 146.5,328.167 146.5,329.5C 144.901,329.232 143.568,329.566 142.5,330.5C 141.761,330.369 141.094,330.536 140.5,331C 142.134,331.494 143.801,331.66 145.5,331.5C 146.167,331.5 146.833,331.5 147.5,331.5C 147.5,333.167 147.5,334.833 147.5,336.5C 145.833,336.5 144.167,336.5 142.5,336.5C 140.167,336.5 137.833,336.5 135.5,336.5C 135.5,330.833 135.5,325.167 135.5,319.5C 139.452,318.728 143.452,318.395 147.5,318.5C 147.5,320.167 147.5,321.833 147.5,323.5 Z"/></g>
<g><path style="opacity:1" fill="#272727" d="M 162.5,319.5 C 162.5,320.167 162.5,320.833 162.5,321.5C 162.672,322.492 162.338,323.158 161.5,323.5C 159.374,324.048 157.374,324.715 155.5,325.5C 154.588,326.738 154.421,328.072 155,329.5C 157.09,330.152 159.257,330.319 161.5,330C 162.252,330.671 162.586,331.504 162.5,332.5C 162.5,333.167 162.5,333.833 162.5,334.5C 159.317,337.703 155.65,338.203 151.5,336C 148.5,332.47 147.833,328.636 149.5,324.5C 150.906,324.027 151.573,323.027 151.5,321.5C 152.058,320.21 153.058,319.377 154.5,319C 157.367,318.199 160.034,318.366 162.5,319.5 Z"/></g>
<g><path style="opacity:1" fill="#101010" d="M 184.5,318.5 C 184.427,320.027 185.094,321.027 186.5,321.5C 187.167,321.5 187.5,321.833 187.5,322.5C 187.987,323.473 188.487,324.473 189,325.5C 189.497,323.19 189.663,320.857 189.5,318.5C 191.167,318.5 192.833,318.5 194.5,318.5C 194.789,324.591 194.455,330.591 193.5,336.5C 192.577,337.303 191.577,337.47 190.5,337C 189.035,335.226 187.702,333.392 186.5,331.5C 186.539,330.244 186.039,329.244 185,328.5C 184.503,331.146 184.336,333.813 184.5,336.5C 182.833,336.5 181.167,336.5 179.5,336.5C 179.5,330.833 179.5,325.167 179.5,319.5C 180.919,318.549 182.585,318.216 184.5,318.5 Z"/></g>
<g><path style="opacity:0.616" fill="#868686" d="M 184.5,318.5 C 185.906,318.973 186.573,319.973 186.5,321.5C 185.094,321.027 184.427,320.027 184.5,318.5 Z"/></g>
<g><path style="opacity:0.675" fill="#838383" d="M 119.5,319.5 C 119.077,321.781 119.744,323.448 121.5,324.5C 120.791,325.404 119.791,325.737 118.5,325.5C 118.205,323.265 118.539,321.265 119.5,319.5 Z"/></g>
<g><path style="opacity:0.4" fill="#9c9c9c" d="M 164.5,319.5 C 166.265,318.539 168.265,318.205 170.5,318.5C 169.99,321.388 170.656,323.721 172.5,325.5C 171.791,326.404 170.791,326.737 169.5,326.5C 169.5,324.167 169.5,321.833 169.5,319.5C 167.833,319.5 166.167,319.5 164.5,319.5 Z"/></g>
<g><path style="opacity:0.188" fill="#cecece" d="M 189.5,318.5 C 189.663,320.857 189.497,323.19 189,325.5C 188.487,324.473 187.987,323.473 187.5,322.5C 188.167,321.167 188.833,319.833 189.5,318.5 Z"/></g>
<g><path style="opacity:0.435" fill="#9d9d9d" d="M 151.5,321.5 C 151.573,323.027 150.906,324.027 149.5,324.5C 149.427,322.973 150.094,321.973 151.5,321.5 Z"/></g>
<g><path style="opacity:1" fill="#3a95c1" d="M 260.5,335.5 C 256.833,335.5 253.167,335.5 249.5,335.5C 249.5,329.833 249.5,324.167 249.5,318.5C 251.167,318.5 252.833,318.5 254.5,318.5C 254.5,322.5 254.5,326.5 254.5,330.5C 256.527,330.662 258.527,330.495 260.5,330C 261.874,319.488 267.541,315.821 277.5,319C 282.279,331.063 278.279,336.729 265.5,336C 263.951,334.786 262.785,333.286 262,331.5C 261.79,333.058 261.29,334.391 260.5,335.5 Z M 269.5,324.5 C 274.511,325.623 274.678,327.623 270,330.5C 267.118,328.826 266.952,326.826 269.5,324.5 Z"/></g>
<g><path style="opacity:1" fill="#5ba7cc" d="M 296.5,331.5 C 296.5,329.5 296.5,327.5 296.5,325.5C 294.5,325.5 292.5,325.5 290.5,325.5C 289.833,324.167 289.167,324.167 288.5,325.5C 288.5,326.833 288.5,328.167 288.5,329.5C 289.552,329.351 290.552,329.517 291.5,330C 289.527,330.495 287.527,330.662 285.5,330.5C 285.949,328.023 285.283,326.023 283.5,324.5C 282.513,327.768 282.18,331.102 282.5,334.5C 281.883,334.389 281.383,334.056 281,333.5C 278.705,322.871 282.872,317.704 293.5,318C 297.172,319.365 297.506,321.365 294.5,324C 295.448,324.483 296.448,324.649 297.5,324.5C 297.802,327.059 297.468,329.393 296.5,331.5 Z"/></g>
<g><path style="opacity:0.075" fill="#c7c7c7" d="M 161.5,323.5 C 160.082,325.308 158.082,325.975 155.5,325.5C 157.374,324.715 159.374,324.048 161.5,323.5 Z"/></g>
<g><path style="opacity:0.188" fill="#d4d4d4" d="M 162.5,319.5 C 163.167,319.5 163.833,319.5 164.5,319.5C 164.5,325.167 164.5,330.833 164.5,336.5C 163.833,335.833 163.167,335.167 162.5,334.5C 162.5,333.833 162.5,333.167 162.5,332.5C 163.833,328.833 163.833,325.167 162.5,321.5C 162.5,320.833 162.5,320.167 162.5,319.5 Z"/></g>
<g><path style="opacity:1" fill="#49c9ee" d="M 343.5,305.5 C 344.391,306.11 345.391,306.443 346.5,306.5C 346.973,307.906 347.973,308.573 349.5,308.5C 350.167,308.5 350.5,308.833 350.5,309.5C 351.262,311.262 352.596,312.262 354.5,312.5C 355.167,312.5 355.5,312.833 355.5,313.5C 356.167,313.5 356.5,313.833 356.5,314.5C 356.427,316.027 357.094,317.027 358.5,317.5C 358.5,318.167 358.833,318.5 359.5,318.5C 359.328,319.492 359.662,320.158 360.5,320.5C 360.5,320.833 360.5,321.167 360.5,321.5C 360.263,322.791 360.596,323.791 361.5,324.5C 361.833,324.5 362.167,324.5 362.5,324.5C 362.5,325.167 362.5,325.833 362.5,326.5C 362.666,330.846 362.499,335.179 362,339.5C 361.329,340.252 360.496,340.586 359.5,340.5C 354.734,329.728 347.401,321.061 337.5,314.5C 340.682,313.97 343.682,312.97 346.5,311.5C 346.5,310.5 346.5,309.5 346.5,308.5C 344.032,309.75 341.699,309.583 339.5,308C 341.066,307.392 342.4,306.558 343.5,305.5 Z"/></g>
<g><path style="opacity:0.682" fill="#616161" d="M 132.5,323.5 C 131.791,324.404 130.791,324.737 129.5,324.5C 129.5,328.5 129.5,332.5 129.5,336.5C 128.5,336.5 127.5,336.5 126.5,336.5C 128.334,332.486 129.001,328.153 128.5,323.5C 129.833,323.5 131.167,323.5 132.5,323.5 Z"/></g>
<g><path style="opacity:0.193" fill="#cfcfcf" d="M 178.5,319.5 C 178.833,319.5 179.167,319.5 179.5,319.5C 179.5,325.167 179.5,330.833 179.5,336.5C 181.167,336.5 182.833,336.5 184.5,336.5C 184.336,333.813 184.503,331.146 185,328.5C 186.039,329.244 186.539,330.244 186.5,331.5C 185.539,333.265 185.205,335.265 185.5,337.5C 180.924,337.562 176.591,336.895 172.5,335.5C 174.167,335.5 175.833,335.5 177.5,335.5C 178.488,330.36 178.821,325.026 178.5,319.5 Z"/></g>
<g><path style="opacity:0.965" fill="#91dff0" d="M 358.5,317.5 C 358.5,317.167 358.5,316.833 358.5,316.5C 359.873,316.343 361.207,316.51 362.5,317C 362.043,317.414 361.709,317.914 361.5,318.5C 363.399,320.933 364.899,323.6 366,326.5C 366.953,323.568 367.453,320.568 367.5,317.5C 368.867,323.178 368.367,328.845 366,334.5C 365.178,332.212 364.511,329.878 364,327.5C 363.963,334.344 362.963,341.011 361,347.5C 359.798,345.323 359.298,342.989 359.5,340.5C 360.496,340.586 361.329,340.252 362,339.5C 362.499,335.179 362.666,330.846 362.5,326.5C 363.833,325.833 363.833,325.167 362.5,324.5C 362.167,321.833 361.833,321.833 361.5,324.5C 360.596,323.791 360.263,322.791 360.5,321.5C 361.833,321.167 361.833,320.833 360.5,320.5C 360.672,319.508 360.338,318.842 359.5,318.5C 358.833,318.5 358.5,318.167 358.5,317.5 Z"/></g>
<g><path style="opacity:0.427" fill="#a5a5a5" d="M 140.5,324.5 C 142.607,323.532 144.941,323.198 147.5,323.5C 147.5,326.167 147.5,328.833 147.5,331.5C 146.833,331.5 146.167,331.5 145.5,331.5C 144.791,330.596 143.791,330.263 142.5,330.5C 143.568,329.566 144.901,329.232 146.5,329.5C 146.5,328.167 146.5,326.833 146.5,325.5C 145.5,325.5 144.5,325.5 143.5,325.5C 142.791,324.596 141.791,324.263 140.5,324.5 Z"/></g>
<g><path style="opacity:0.443" fill="#9f9f9f" d="M 194.5,318.5 C 195.167,320.833 195.833,323.167 196.5,325.5C 196.5,327.5 196.5,329.5 196.5,331.5C 196.028,333.531 195.028,335.198 193.5,336.5C 194.455,330.591 194.789,324.591 194.5,318.5 Z"/></g>
<g><path style="opacity:1" fill="#3894c4" d="M 288.5,325.5 C 289.167,325.5 289.833,325.5 290.5,325.5C 292.5,325.5 294.5,325.5 296.5,325.5C 296.5,327.5 296.5,329.5 296.5,331.5C 296.141,333.371 295.141,334.871 293.5,336C 290.167,336.667 286.833,336.667 283.5,336C 282.944,335.617 282.611,335.117 282.5,334.5C 282.18,331.102 282.513,327.768 283.5,324.5C 285.283,326.023 285.949,328.023 285.5,330.5C 287.527,330.662 289.527,330.495 291.5,330C 290.552,329.517 289.552,329.351 288.5,329.5C 288.5,328.167 288.5,326.833 288.5,325.5 Z"/></g>
<g><path style="opacity:0.718" fill="#565656" d="M 173.5,318.5 C 174.097,317.861 174.93,317.528 176,317.5C 177.376,317.684 178.209,318.351 178.5,319.5C 178.821,325.026 178.488,330.36 177.5,335.5C 177.5,329.833 177.5,324.167 177.5,318.5C 176.167,318.5 174.833,318.5 173.5,318.5 Z"/></g>
<g><path style="opacity:1" fill="#3a97c4" d="M 247.5,328.5 C 247.5,329.833 247.5,331.167 247.5,332.5C 247.167,333.5 246.5,334.167 245.5,334.5C 241.5,334.833 237.5,335.167 233.5,335.5C 233.5,330.167 233.5,324.833 233.5,319.5C 237.31,317.131 241.31,316.964 245.5,319C 246.804,319.804 247.471,320.971 247.5,322.5C 246.347,324.568 246.347,326.568 247.5,328.5 Z M 238.5,329.5 C 241.797,329.329 242.131,329.995 239.5,331.5C 238.702,331.043 238.369,330.376 238.5,329.5 Z"/></g>
<g><path style="opacity:1" fill="#86bed2" d="M 233.5,319.5 C 233.5,324.833 233.5,330.167 233.5,335.5C 237.5,335.167 241.5,334.833 245.5,334.5C 244.737,335.268 243.737,335.768 242.5,336C 239.183,336.498 235.85,336.665 232.5,336.5C 232.178,330.642 232.511,324.975 233.5,319.5 Z"/></g>
<g><path style="opacity:0.431" fill="#a4d1e6" d="M 249.5,318.5 C 249.5,324.167 249.5,329.833 249.5,335.5C 253.167,335.5 256.833,335.5 260.5,335.5C 256.702,336.483 252.702,336.817 248.5,336.5C 248.768,334.901 248.434,333.568 247.5,332.5C 247.5,331.167 247.5,329.833 247.5,328.5C 248.167,325.167 248.833,321.833 249.5,318.5 Z"/></g>
</svg>
